<?xml version="1.0" standalone="no"?>
<!DOCTYPE svg PUBLIC "-//W3C//DTD SVG 20010904//EN"
 "http://www.w3.org/TR/2001/REC-SVG-20010904/DTD/svg10.dtd">
<svg version="1.0" xmlns="http://www.w3.org/2000/svg"
 width="330.000000pt" height="330.000000pt" viewBox="0 0 330.000000 330.000000"
 preserveAspectRatio="xMidYMid meet">
<metadata>
Created by potrace 1.14, written by Peter Selinger 2001-2017
</metadata>
<g transform="translate(0.000000,330.000000) scale(0.100000,-0.100000)"
fill="#000000" stroke="none">
<path d="M1584 3289 c-2 -4 1 -11 7 -15 8 -5 9 -3 4 7 -5 8 -4 10 0 6 11 -10
15 -37 6 -37 -4 0 -13 6 -21 13 -12 10 -12 9 0 -7 16 -21 22 -49 9 -40 -5 3
-7 10 -4 15 3 5 -1 6 -10 3 -9 -4 -13 -9 -11 -12 3 -3 -2 -11 -12 -19 -15 -13
-15 -13 6 -3 25 12 24 13 27 -17 1 -13 -2 -20 -7 -16 -6 3 -7 -3 -3 -17 5 -17
4 -21 -5 -15 -9 5 -11 4 -6 -3 4 -7 1 -12 -6 -12 -10 0 -10 -2 1 -9 7 -5 11
-13 7 -19 -3 -6 -2 -13 4 -17 5 -3 10 -11 10 -16 0 -6 -5 -7 -12 -3 -6 4 -8 3
-4 -4 3 -5 0 -13 -6 -15 -10 -4 -10 -6 0 -6 6 -1 12 -6 12 -12 0 -5 -5 -7 -12
-3 -7 5 -8 3 -2 -7 5 -8 9 -22 10 -31 1 -10 2 -25 3 -33 0 -8 10 -15 21 -15
11 0 20 -4 20 -10 0 -5 -8 -7 -17 -4 -14 5 -15 4 -4 -4 8 -6 20 -8 28 -5 15 6
17 -8 3 -25 -6 -6 -7 -10 -4 -7 4 3 14 -1 22 -8 13 -9 14 -9 8 1 -7 12 3 16
34 13 11 -1 11 1 -3 9 -9 6 -22 8 -27 5 -6 -3 -10 -4 -10 -1 0 10 58 35 65 28
5 -4 5 -1 1 6 -4 7 -11 10 -16 7 -4 -3 -6 4 -3 16 4 16 8 17 14 7 6 -9 9 -9 9
-1 0 6 -4 15 -10 18 -6 4 -5 13 2 25 7 10 16 16 20 14 15 -9 8 3 -9 17 -9 8
-14 9 -10 3 4 -7 -1 -18 -11 -25 -15 -12 -16 -12 -5 2 10 12 10 18 0 29 -8 9
-9 11 0 6 6 -3 14 -2 18 4 3 5 1 10 -6 10 -7 0 -9 3 -6 7 4 3 2 12 -4 19 -7 8
-6 14 2 20 8 4 9 3 5 -4 -4 -7 -4 -12 1 -12 13 0 32 49 22 56 -5 3 -8 2 -7 -3
2 -4 -1 -10 -6 -13 -5 -3 -11 5 -13 18 -1 13 1 21 6 18 15 -10 6 25 -10 35
-12 8 -12 9 1 7 8 -2 15 2 15 7 0 6 -3 9 -6 8 -4 -1 -9 11 -11 26 -3 23 -1 28
11 24 9 -3 6 2 -6 11 -23 17 -99 20 -109 5z m8 -184 c-5 -28 -21 -34 -18 -7 1
13 13 31 22 32 1 0 -1 -11 -4 -25z m0 -80 c-5 -28 -21 -34 -18 -7 1 13 13 31
22 32 1 0 -1 -11 -4 -25z m-2 -44 c0 -6 -4 -12 -8 -15 -5 -3 -9 1 -9 9 0 8 4
15 9 15 4 0 8 -4 8 -9z"/>
<path d="M927 3108 c-12 -11 -16 -17 -9 -13 6 3 12 1 12 -4 0 -6 -6 -11 -12
-11 -9 0 -8 -4 2 -10 8 -5 11 -10 6 -10 -6 0 -5 -5 1 -11 6 -6 9 -18 6 -27 -5
-11 -3 -13 8 -7 12 7 12 6 0 -9 -13 -16 -13 -17 4 -14 10 1 20 -3 23 -11 3 -9
0 -11 -8 -6 -9 5 -11 4 -6 -4 6 -9 11 -9 24 1 13 12 14 10 4 -9 -15 -27 -15
-36 -1 -27 9 5 10 -1 5 -22 -7 -28 -7 -28 8 -9 l16 20 -7 -20 c-3 -11 -3 -17
2 -13 11 10 36 -12 29 -24 -4 -6 0 -14 7 -19 12 -7 12 -9 0 -9 -11 0 -10 -4 5
-16 10 -8 12 -12 4 -8 -12 7 -13 5 -3 -8 7 -8 9 -19 5 -24 -4 -4 1 -2 11 5 9
8 20 11 24 7 3 -3 1 -6 -5 -6 -7 0 -12 -4 -12 -10 0 -5 7 -7 15 -4 11 5 14 2
9 -12 -4 -11 -4 -16 1 -12 4 4 14 3 20 -2 9 -7 16 -6 25 5 7 8 21 15 31 15 11
0 19 5 19 11 0 6 -8 8 -17 5 -15 -5 -15 -4 1 9 11 8 17 15 13 15 -4 0 -3 10 4
21 6 12 7 19 1 16 -5 -4 -18 0 -28 8 -15 12 -15 14 -3 9 10 -3 20 0 25 7 4 8
3 10 -4 5 -7 -4 -12 -2 -12 4 0 6 -4 8 -10 5 -5 -3 -10 2 -10 13 0 10 -12 29
-26 41 -21 18 -24 25 -13 32 10 6 8 10 -11 18 -22 8 -22 10 -5 11 l20 1 -20 8
c-11 5 -24 7 -30 6 -5 -1 -7 0 -2 2 4 3 7 11 7 19 0 9 -4 12 -10 9 -6 -3 -7 1
-4 9 4 11 0 16 -12 17 -12 0 -14 3 -6 6 10 4 9 9 -5 20 -10 8 -12 11 -4 7 10
-5 12 -3 6 5 -5 8 -11 9 -17 3 -11 -11 -50 -4 -43 7 9 16 -28 7 -48 -11z m28
2 c-3 -5 -12 -10 -18 -10 -7 0 -6 4 3 10 19 12 23 12 15 0z m175 -350 c0 -5
-2 -10 -4 -10 -3 0 -8 5 -11 10 -3 6 -1 10 4 10 6 0 11 -4 11 -10z"/>
<path d="M995 3120 c3 -5 8 -10 11 -10 2 0 4 5 4 10 0 6 -5 10 -11 10 -5 0 -7
-4 -4 -10z"/>
<path d="M2278 3123 c25 -10 11 -22 -14 -12 -24 8 -25 8 -14 -6 9 -11 9 -15 1
-15 -7 0 -10 -4 -7 -8 2 -4 1 -14 -5 -22 -8 -13 -9 -13 -9 0 0 10 -5 7 -16 -8
-8 -12 -20 -19 -26 -16 -7 4 -8 2 -4 -4 4 -6 2 -21 -5 -33 -8 -17 -8 -20 1
-14 8 5 11 3 8 -6 -3 -8 -11 -13 -18 -11 -10 2 -11 0 -2 -11 9 -10 7 -17 -8
-29 -10 -9 -21 -14 -24 -11 -3 4 -6 2 -7 -3 -4 -46 -8 -59 -18 -62 -6 -2 -9
-8 -5 -13 3 -5 0 -9 -5 -9 -6 0 -11 -7 -11 -16 0 -9 -5 -12 -12 -8 -7 4 -8 3
-4 -4 4 -6 12 -9 19 -6 7 2 22 -6 33 -18 l19 -23 -21 18 c-17 14 -21 14 -21 3
0 -8 5 -14 11 -13 6 1 10 -7 9 -18 -1 -11 0 -14 3 -7 3 6 10 12 15 12 6 0 8
-4 5 -8 -2 -4 4 -8 14 -8 13 0 17 7 15 23 -2 20 0 21 13 11 13 -11 15 -10 9 6
-5 13 -3 17 7 13 10 -4 14 0 11 12 -3 14 1 17 16 14 11 -3 19 0 19 6 0 7 -4 9
-10 6 -5 -3 -10 -1 -10 4 0 6 3 11 8 11 4 0 13 9 20 21 8 12 9 18 3 14 -6 -3
-11 -1 -11 4 0 6 5 11 10 11 6 0 10 7 10 16 0 14 2 15 17 3 15 -13 15 -12 4
10 -9 16 -10 21 -1 16 7 -4 14 1 17 15 3 12 11 19 18 16 13 -5 15 18 2 30 -3
4 -2 15 4 25 5 11 7 19 4 19 -3 0 -1 9 5 20 6 11 16 20 23 20 8 0 7 -4 -3 -10
-8 -5 -12 -11 -10 -14 3 -2 13 2 23 9 18 13 18 13 -2 20 -13 4 -18 12 -14 23
5 14 3 13 -9 -2 -12 -15 -17 -16 -23 -6 -6 9 -4 11 5 5 9 -6 11 -4 6 4 -5 7
-14 10 -22 7 -8 -3 -14 -1 -14 4 0 6 -8 10 -17 9 -11 0 -13 -3 -5 -6z m-68
-103 c-6 -11 -13 -20 -16 -20 -2 0 0 9 6 20 6 11 13 20 16 20 2 0 0 -9 -6 -20z"/>
<path d="M2342 3045 c4 -4 3 -16 -3 -26 -5 -11 -7 -19 -5 -19 3 0 10 9 16 19
7 15 7 22 -2 27 -7 4 -10 4 -6 -1z"/>
<path d="M2136 2938 c3 -4 11 -5 19 -1 21 7 19 12 -4 10 -11 0 -18 -5 -15 -9z"/>
<path d="M1010 2880 c0 -5 5 -10 11 -10 5 0 7 5 4 10 -3 6 -8 10 -11 10 -2 0
-4 -4 -4 -10z"/>
<path d="M1627 2753 c3 -7 9 -10 14 -7 14 8 11 21 -5 21 -8 0 -12 -6 -9 -14z"/>
<path d="M1147 2753 c-11 -10 -8 -20 6 -20 8 0 14 6 14 14 0 14 -10 17 -20 6z"/>
<path d="M1554 2748 c-5 -7 -2 -8 6 -3 9 6 11 4 5 -4 -5 -9 -10 -10 -18 -2 -7
7 -15 7 -25 -1 -10 -9 -15 -9 -22 1 -6 11 -8 11 -12 1 -2 -8 -12 -14 -21 -16
-9 -1 -15 2 -11 7 3 5 -2 9 -11 9 -10 0 -13 -5 -9 -12 5 -8 0 -7 -11 2 -10 8
-16 10 -12 3 6 -9 -2 -11 -28 -9 -19 2 -35 -1 -35 -6 0 -6 7 -8 15 -4 8 3 15
1 15 -4 0 -6 -6 -10 -14 -10 -8 0 -16 -6 -19 -13 -4 -12 -30 -18 -85 -20 -13
-1 -21 -6 -18 -13 2 -6 -4 -18 -15 -27 -10 -9 -19 -12 -19 -7 0 6 -5 10 -11
10 -6 0 -8 -7 -5 -16 5 -14 4 -15 -8 -5 -11 9 -16 9 -22 0 -4 -7 -3 -9 3 -6 5
3 10 0 10 -8 0 -11 -5 -12 -20 -4 -14 8 -22 8 -31 -1 -8 -8 -7 -10 5 -5 10 4
16 0 16 -9 0 -8 -6 -12 -14 -9 -8 3 -13 0 -11 -8 2 -9 -4 -13 -14 -11 -10 2
-18 -2 -18 -8 0 -6 -4 -8 -10 -5 -5 3 -10 1 -10 -5 0 -6 -5 -8 -12 -4 -9 5 -8
2 1 -9 12 -15 12 -17 -3 -11 -13 5 -17 2 -14 -12 2 -11 -2 -18 -9 -16 -7 1
-13 -4 -13 -12 0 -8 -4 -18 -10 -21 -5 -3 -7 0 -4 8 3 8 1 18 -4 21 -5 3 -8
-11 -6 -31 2 -26 0 -32 -7 -23 -7 13 -9 12 -9 -2 0 -10 -5 -18 -11 -18 -5 0
-7 5 -4 10 3 6 4 10 1 10 -3 0 -10 -9 -16 -20 -9 -17 -8 -19 7 -13 15 6 16 5
3 -9 -11 -11 -19 -13 -28 -6 -7 6 -15 8 -19 4 -3 -3 -2 -6 4 -6 6 0 14 -7 17
-16 3 -8 2 -13 -3 -10 -11 7 -21 -17 -21 -50 0 -18 -4 -22 -17 -17 -12 5 -14
3 -8 -7 6 -10 4 -12 -8 -7 -11 4 -14 2 -10 -8 3 -8 10 -12 16 -8 6 3 7 1 3 -6
-5 -7 -16 -9 -28 -5 -18 5 -19 4 -7 -9 8 -8 17 -13 22 -10 14 8 7 -5 -10 -18
-14 -12 -16 -12 -8 0 5 9 4 12 -3 8 -15 -10 -7 -43 9 -39 9 1 7 -3 -4 -12 -14
-10 -15 -15 -5 -19 8 -3 5 -6 -7 -6 -15 -1 -16 -4 -7 -13 15 -15 15 -28 1 -28
-5 0 -7 6 -3 13 6 8 3 8 -9 -1 -9 -8 -16 -17 -15 -20 0 -4 0 -9 -2 -12 -7 -19
-7 -61 0 -65 4 -3 7 3 6 12 0 10 7 18 17 19 12 1 13 0 2 -3 -8 -2 -15 -9 -15
-14 0 -6 6 -7 13 -3 8 5 8 3 -2 -9 -7 -9 -18 -14 -24 -10 -6 4 -8 0 -5 -8 4
-10 -3 -15 -23 -15 -16 -1 -29 3 -29 10 0 6 -5 3 -11 -7 -6 -10 -15 -14 -22
-10 -16 10 -118 11 -146 1 -22 -8 -23 -7 -10 8 13 16 12 16 -6 7 -11 -6 -44
-10 -73 -9 -28 1 -52 -2 -52 -7 0 -5 -7 -4 -15 3 -12 10 -15 10 -16 -1 0 -8
-4 -5 -9 6 -7 17 -9 17 -9 3 -1 -11 -6 -15 -16 -12 -12 5 -15 -3 -15 -41 0
-33 3 -44 12 -39 7 5 9 2 5 -9 -4 -12 -2 -14 10 -10 10 4 14 2 10 -4 -3 -5 0
-10 8 -10 8 0 15 4 15 9 0 4 7 8 16 8 8 0 12 5 8 11 -3 6 6 3 22 -7 15 -11 39
-19 52 -19 13 -1 27 -7 32 -15 7 -11 10 -11 11 -2 3 27 4 31 13 39 5 4 6 3 2
-4 -3 -6 -2 -14 3 -17 5 -3 12 1 15 10 3 8 10 13 15 10 5 -4 12 -1 14 4 3 6 4
5 3 -2 -2 -7 -9 -12 -15 -11 -6 2 -11 -1 -11 -5 0 -17 69 -12 80 6 9 16 11 16
24 0 14 -19 32 -25 21 -9 -3 5 -1 13 5 16 6 4 10 3 9 -2 -1 -4 1 -16 6 -26 6
-15 10 -16 16 -5 13 19 11 36 -2 18 -7 -10 -9 -11 -7 -2 2 8 7 13 12 12 5 -1
13 4 18 12 7 9 8 7 4 -7 -5 -16 -1 -21 14 -22 11 -1 20 3 20 8 0 6 -4 7 -10 4
-5 -3 -10 -1 -10 5 0 7 6 10 14 7 8 -3 17 -1 20 6 3 9 5 8 5 -1 1 -7 6 -10 13
-6 7 4 8 3 4 -5 -4 -6 -12 -9 -17 -6 -5 4 -9 1 -9 -5 0 -7 7 -9 15 -6 9 3 18
-1 22 -10 5 -13 7 -13 14 -2 13 19 11 36 -2 18 -9 -12 -10 -12 -5 3 3 10 6 21
6 23 0 2 4 4 10 4 5 0 9 -3 9 -7 -1 -5 -1 -15 0 -23 1 -11 5 -10 14 5 14 24
39 32 31 10 -4 -8 -10 -12 -15 -9 -5 3 -9 1 -9 -4 0 -17 69 -12 80 6 9 16 11
16 24 -2 8 -10 19 -15 25 -12 5 4 14 -1 19 -10 8 -15 10 -15 15 1 4 9 12 13
18 9 8 -4 9 -3 5 5 -6 8 -12 9 -20 2 -13 -11 -26 -5 -26 10 0 5 7 5 17 2 11
-4 14 -3 9 6 -6 9 -3 9 13 -1 12 -7 21 -16 21 -20 0 -5 4 -8 9 -8 6 0 8 10 6
21 -3 12 -1 18 3 15 4 -4 7 -13 7 -19 0 -7 8 -12 18 -12 10 0 22 -7 27 -15 7
-10 10 -11 11 -2 3 27 4 31 13 39 5 4 6 3 2 -4 -3 -6 -2 -14 3 -17 5 -3 12 1
15 10 3 8 10 13 15 10 5 -4 12 -1 14 4 3 6 4 5 3 -2 -2 -7 -9 -12 -15 -11 -6
2 -11 -2 -11 -8 0 -6 6 -9 13 -6 6 2 21 1 33 -4 14 -5 21 -3 21 6 0 7 -6 11
-14 8 -7 -3 -13 -1 -13 5 0 14 33 8 38 -6 2 -7 8 -12 13 -12 6 0 7 4 4 10 -4
6 1 7 11 3 10 -4 15 -2 11 4 -3 5 3 9 15 8 12 -1 24 -7 26 -13 2 -7 8 -12 13
-12 6 0 7 4 4 10 -4 6 1 7 11 3 11 -4 15 -3 11 4 -4 7 0 10 10 9 10 -2 18 -10
18 -19 0 -8 4 -18 8 -21 4 -3 5 -3 2 0 -7 10 15 45 25 39 4 -3 11 1 14 7 3 7
3 3 0 -9 -3 -13 -1 -23 5 -23 10 0 15 14 12 33 -1 5 3 6 9 2 6 -3 8 -11 5 -16
-4 -5 -2 -16 3 -25 8 -14 10 -15 15 -1 4 11 14 14 31 11 15 -2 26 0 26 6 0 6
-5 8 -12 4 -7 -4 -8 -3 -4 5 4 6 11 9 16 6 4 -3 11 1 14 7 3 7 3 3 0 -9 -3
-13 -1 -23 5 -23 10 0 15 14 12 33 -1 5 3 6 9 2 6 -3 8 -10 5 -15 -3 -4 -2
-16 1 -25 6 -15 8 -15 15 -2 8 14 76 16 97 3 5 -3 9 1 9 8 0 8 -9 12 -21 9
-20 -3 -20 -3 -1 6 14 6 23 5 31 -5 13 -16 28 -19 19 -4 -4 6 1 7 11 3 10 -4
15 -2 11 4 -3 5 3 9 15 8 12 -1 24 -7 26 -13 2 -7 8 -12 13 -12 6 0 7 4 4 10
-4 6 1 7 11 3 11 -4 15 -3 11 4 -8 13 19 11 30 -2 4 -4 2 -5 -5 -1 -11 7 -11
4 -1 -12 7 -12 14 -20 14 -19 0 1 7 11 15 21 12 16 12 18 1 11 -10 -5 -12 -4
-7 4 4 6 11 9 16 6 4 -3 11 1 14 7 3 7 4 4 3 -6 -1 -10 3 -21 10 -23 8 -3 11
3 8 18 -2 12 -1 18 3 15 4 -4 7 -13 7 -19 0 -7 8 -12 18 -12 10 0 21 -6 25
-12 6 -9 11 -6 21 8 9 16 9 19 0 14 -8 -5 -10 -4 -5 4 4 6 12 9 17 6 5 -4 9
-1 9 6 0 7 3 10 6 7 3 -4 0 -17 -7 -30 -10 -19 -10 -21 2 -12 8 6 26 9 42 8
15 -2 27 2 27 7 0 6 -4 7 -10 4 -5 -3 -10 -1 -10 4 0 17 20 13 27 -5 3 -8 12
-13 19 -10 7 3 18 -3 23 -12 7 -12 10 -13 11 -3 0 7 6 11 13 8 8 -3 14 1 14 8
0 10 -5 11 -17 5 -16 -9 -30 -4 -30 9 0 12 54 4 58 -7 2 -7 8 -12 13 -12 6 0
7 4 4 10 -4 6 1 7 11 3 10 -4 15 -2 11 4 -3 5 3 9 14 8 11 -1 25 -8 29 -16 8
-12 11 -12 22 0 9 10 10 12 1 7 -9 -5 -11 -2 -7 8 3 9 10 16 16 16 5 0 7 -4 3
-9 -3 -6 4 -15 16 -22 19 -10 21 -9 16 5 -4 10 -3 15 3 11 6 -3 10 0 10 7 1 8
9 4 19 -9 21 -25 36 -30 28 -10 -3 8 1 14 9 14 7 0 11 -4 8 -9 -3 -4 -1 -15 4
-24 8 -14 10 -15 15 -1 4 11 14 14 31 11 15 -2 26 0 26 6 0 6 -5 8 -12 4 -7
-4 -8 -3 -4 5 4 6 11 9 16 6 4 -3 11 1 14 7 3 7 3 3 0 -9 -3 -13 -1 -23 5 -23
10 0 15 14 12 33 -1 5 3 6 9 2 6 -3 8 -11 5 -16 -4 -5 -2 -16 3 -25 8 -14 10
-14 15 -1 4 10 17 13 46 11 23 -2 45 -5 49 -8 5 -3 9 1 9 8 0 8 -9 12 -21 9
-20 -3 -20 -3 -1 6 14 6 23 5 31 -5 13 -16 28 -19 19 -4 -4 6 1 7 11 3 10 -4
15 -2 11 4 -10 16 29 8 47 -10 22 -22 29 -22 17 1 -8 14 -5 17 13 17 12 -1 27
-4 32 -8 6 -3 11 0 11 8 0 8 -3 12 -7 10 -3 -2 -12 1 -20 7 -12 8 -12 9 3 4 9
-3 17 -1 17 5 0 6 7 3 16 -5 22 -22 33 -12 30 27 -5 48 -5 48 -25 38 -15 -8
-20 -7 -25 5 -5 13 -9 14 -20 5 -10 -8 -16 -9 -21 -1 -3 6 -11 8 -16 4 -5 -3
-17 0 -26 8 -12 9 -15 9 -9 1 4 -7 3 -13 -1 -13 -5 0 -15 6 -22 13 -11 10 -12
9 -6 -2 6 -11 2 -13 -19 -7 -20 5 -26 4 -20 -5 5 -8 3 -9 -7 -4 -17 11 -51 11
-68 0 -9 -5 -12 -4 -8 2 4 6 0 13 -8 17 -8 3 -17 1 -21 -5 -3 -6 -21 -8 -40
-6 -19 3 -34 1 -34 -4 0 -5 -12 -1 -27 8 -15 10 -24 12 -20 6 5 -7 4 -13 -2
-13 -6 0 -11 5 -11 11 0 5 -4 7 -10 4 -5 -3 -10 1 -10 10 0 9 -4 14 -8 11 -14
-8 -13 77 0 87 9 6 8 7 -4 3 -14 -4 -17 0 -15 17 1 12 7 25 12 29 6 4 1 8 -10
8 -17 0 -17 2 -5 10 10 6 11 10 3 10 -7 0 -13 9 -13 21 0 13 -4 18 -12 13 -9
-5 -9 -2 1 9 9 12 10 17 2 17 -7 0 -9 5 -5 12 4 7 3 8 -5 4 -6 -4 -9 -13 -5
-19 3 -7 -2 -3 -10 7 -13 16 -13 22 -3 35 10 12 9 13 -2 6 -11 -6 -13 -4 -8 8
4 10 2 17 -5 17 -6 0 -5 6 3 17 12 14 12 16 0 8 -11 -6 -13 -4 -8 8 3 9 3 16
-1 16 -27 -4 -42 3 -42 21 0 11 -4 20 -10 20 -5 0 -12 11 -16 24 -4 18 -11 23
-22 18 -15 -5 -16 -4 -2 13 9 11 10 16 3 11 -14 -8 -57 17 -59 34 -1 6 -2 14
-3 20 0 5 -9 7 -18 3 -16 -6 -15 -3 2 18 15 18 16 20 3 10 -18 -13 -24 -7 -19
22 0 4 -2 6 -6 6 -5 -1 -11 0 -15 1 -5 1 -11 3 -15 4 -30 8 -83 42 -83 54 0
12 -3 12 -15 2 -9 -7 -18 -10 -22 -6 -3 3 -1 6 5 6 7 0 12 5 12 11 0 6 -7 9
-15 6 -8 -4 -17 -1 -21 5 -5 7 -2 8 6 3 9 -6 11 -4 6 4 -5 7 -14 10 -22 7 -8
-3 -14 1 -14 10 0 8 -5 12 -10 9 -6 -4 -8 -11 -5 -16 3 -5 -1 -6 -8 -3 -8 3
-17 14 -20 25 -5 18 -8 19 -29 8 -20 -11 -22 -11 -10 3 10 13 10 18 1 24 -7 4
-9 3 -6 -3 4 -6 1 -13 -7 -16 -16 -6 -26 1 -26 17 0 6 5 4 11 -4 9 -13 10 -13
6 0 -2 8 -12 14 -22 12 -11 -2 -14 1 -9 9 4 8 3 10 -5 5 -6 -4 -9 -12 -6 -17
4 -5 1 -9 -4 -9 -6 0 -11 5 -11 11 0 5 -5 7 -11 3 -6 -3 -15 0 -20 7 -7 11 -9
10 -9 -5 0 -15 -3 -16 -15 -6 -8 7 -15 9 -15 5 0 -4 -6 -3 -13 4 -10 8 -17 7
-27 -2 -10 -9 -11 -9 -6 1 4 6 2 12 -3 12 -6 0 -11 -6 -11 -12 0 -9 -3 -9 -9
1 -8 12 -15 13 -34 4 -20 -9 -28 -8 -42 5 -10 9 -15 12 -11 6 3 -7 -1 -15 -10
-18 -8 -3 -13 -2 -10 3 3 5 -1 11 -9 15 -8 3 -17 0 -21 -6z m-149 -37 c3 -5 2
-12 -3 -15 -5 -3 -9 1 -9 9 0 17 3 19 12 6z m199 -72 c9 8 13 7 13 -3 0 -8 -8
-13 -19 -11 -10 2 -18 0 -18 -6 0 -5 11 -7 25 -5 13 3 27 0 31 -5 3 -5 10 -7
15 -3 5 3 7 10 3 15 -3 5 -10 7 -15 4 -5 -4 -9 -2 -9 3 0 6 7 13 16 16 8 3 12
2 9 -4 -8 -13 8 -13 21 0 8 8 15 6 25 -6 12 -15 12 -17 0 -9 -10 6 -12 4 -6
-5 6 -10 13 -8 28 11 13 15 18 18 14 7 -4 -10 -10 -26 -14 -35 -4 -11 2 -9 15
7 12 14 20 18 17 9 -5 -13 0 -15 26 -11 25 4 30 2 24 -9 -8 -12 -6 -12 8 0 13
11 17 11 17 1 0 -8 3 -10 7 -7 3 4 13 1 21 -6 13 -10 15 -9 9 7 -6 16 -5 17 8
6 8 -7 12 -17 8 -24 -4 -7 -1 -6 8 1 13 10 19 10 35 -3 10 -8 14 -13 7 -10 -6
4 -15 1 -19 -6 -4 -7 -4 -10 1 -6 4 4 17 3 28 -3 10 -6 17 -7 14 -2 -4 5 0 10
7 10 8 0 11 -8 8 -21 -4 -21 -4 -21 12 -1 16 20 16 20 22 -2 3 -13 11 -23 16
-23 5 0 6 4 3 10 -3 6 1 7 9 4 12 -5 13 -10 5 -26 -7 -13 -7 -18 -1 -14 6 3
12 3 15 -1 2 -5 2 -1 0 7 -2 11 0 11 10 -2 8 -10 17 -15 20 -11 4 3 7 -2 7
-13 0 -16 2 -17 10 -4 9 13 10 13 11 0 1 -8 1 -18 0 -22 0 -5 3 -8 9 -8 5 0
10 -6 10 -13 0 -8 12 -19 27 -26 l28 -13 -28 26 c-15 14 -27 31 -27 38 0 7 6
4 12 -7 6 -11 20 -26 30 -33 15 -11 16 -17 8 -27 -9 -11 -7 -17 9 -27 16 -10
18 -15 8 -28 -9 -12 -9 -13 3 -2 8 6 21 12 29 11 12 0 12 -2 3 -6 -10 -4 -8
-8 5 -18 20 -15 24 -36 8 -48 -6 -4 -1 -7 11 -5 11 2 20 -1 20 -7 -1 -5 -8 -9
-16 -7 -12 2 -13 1 -1 -7 8 -5 11 -16 8 -24 -4 -11 -1 -14 8 -10 8 3 13 9 10
13 -3 5 -1 11 4 14 5 4 8 -5 6 -19 -1 -14 1 -25 5 -25 4 0 10 -11 12 -25 5
-22 3 -23 -10 -13 -13 12 -14 10 -2 -9 8 -12 19 -19 25 -16 5 3 5 0 -2 -7 -9
-10 -8 -16 3 -27 8 -8 14 -19 14 -26 0 -6 -6 -3 -13 8 -13 17 -14 16 -12 -6 1
-17 7 -23 20 -21 9 2 14 -1 11 -6 -3 -6 -3 -12 1 -15 5 -2 4 -3 -2 -2 -5 1
-19 -7 -30 -18 -20 -20 -20 -20 1 -9 14 7 25 7 35 0 12 -8 11 -9 -2 -5 -9 3
-27 -2 -40 -10 -12 -9 -19 -11 -15 -4 10 15 -25 11 -36 -4 -5 -7 -8 -7 -8 0 0
12 -51 12 -70 0 -8 -5 -11 -4 -7 2 4 6 0 13 -8 17 -8 3 -17 1 -20 -5 -8 -12
-66 -9 -84 5 -12 9 -13 8 -6 -3 6 -11 2 -13 -19 -7 -20 5 -26 4 -20 -5 5 -8 3
-9 -7 -4 -17 11 -51 11 -68 0 -9 -5 -12 -4 -8 2 4 6 0 13 -8 17 -8 3 -17 1
-20 -5 -8 -12 -66 -9 -84 5 -12 9 -13 8 -6 -3 6 -11 2 -13 -19 -7 -20 5 -26 4
-20 -5 5 -8 3 -9 -7 -4 -7 5 -23 9 -34 9 -11 0 -27 -4 -34 -9 -9 -5 -12 -4 -8
2 4 6 0 13 -8 17 -8 3 -17 1 -20 -5 -8 -12 -66 -9 -84 5 -12 9 -13 8 -6 -3 6
-11 2 -13 -19 -7 -20 5 -26 4 -20 -5 5 -8 3 -9 -7 -4 -17 11 -51 11 -68 0 -9
-5 -12 -4 -8 2 4 6 0 13 -8 17 -8 3 -17 1 -20 -4 -3 -6 -35 -8 -70 -6 -35 2
-62 -1 -59 -5 3 -5 -7 -4 -23 2 -15 6 -30 10 -33 9 -56 -22 -54 -21 -39 -4 13
16 12 16 -6 7 -11 -6 -44 -10 -72 -9 -29 1 -53 -2 -53 -7 0 -6 -5 -6 -12 0 -7
5 -24 8 -38 7 -14 -1 -28 3 -32 10 -6 8 -8 7 -8 -1 0 -19 -18 -16 -42 7 -19
17 -19 20 -5 20 9 0 17 5 17 11 0 5 -4 8 -10 4 -5 -3 -8 7 -7 24 1 20 6 26 13
20 12 -10 24 -2 24 15 0 6 -4 5 -9 -2 -7 -11 -9 -11 -14 2 -4 11 -1 16 11 16
15 0 15 2 2 10 -13 8 -12 10 3 10 14 0 16 4 7 19 -9 17 -7 19 12 16 15 -3 18
-1 11 6 -7 7 -8 22 -3 40 5 16 9 32 9 34 1 12 17 31 35 41 11 6 22 17 24 25 3
11 1 11 -7 -1 -13 -18 -14 -1 -2 19 5 7 14 11 20 7 7 -5 8 -1 4 10 -5 14 -3
16 11 11 10 -4 15 -3 11 3 -3 6 0 10 7 11 10 0 10 2 0 6 -19 7 -4 23 16 16 14
-6 15 -4 5 9 -13 15 -8 28 9 28 5 0 6 -6 2 -12 -4 -7 2 -5 13 5 11 9 23 14 27
10 4 -4 4 1 0 10 -8 21 23 48 45 39 10 -4 12 -1 6 8 -6 10 -4 12 9 7 14 -5 15
-3 6 13 -9 16 -8 18 6 13 12 -4 15 -3 10 6 -5 8 -3 12 5 10 33 -4 50 1 43 14
-6 9 -4 9 8 -1 13 -10 18 -10 24 -1 5 8 3 10 -7 4 -11 -6 -12 -5 -2 5 10 11
15 11 30 -1 14 -11 14 -9 -2 10 l-20 24 25 -13 c24 -13 24 -12 10 6 -8 10 -11
16 -6 12 5 -4 18 -3 29 3 10 6 17 7 14 2 -6 -10 22 -11 38 -1 6 3 25 5 42 3
27 -1 31 1 21 12 -9 11 -8 13 3 11 8 -2 18 -7 22 -13 5 -6 7 0 4 13 -5 19 -3
21 9 11 7 -6 11 -16 7 -22 -4 -6 -1 -7 6 -3 7 5 10 15 7 23 -3 8 -1 11 4 8 6
-3 10 0 11 7 0 10 2 11 6 0 3 -9 9 -10 17 -3z m-119 -37 c-3 -3 -11 0 -18 7
-9 10 -8 11 6 5 10 -3 15 -9 12 -12z m695 -64 c0 -5 -7 -3 -15 6 -8 8 -15 18
-15 22 0 3 7 1 15 -6 8 -7 15 -17 15 -22z m-1020 -102 c0 -3 -4 -8 -10 -11 -5
-3 -10 -1 -10 4 0 6 5 11 10 11 6 0 10 -2 10 -4z m1045 -84 c-3 -3 -11 0 -18
7 -9 10 -8 11 6 5 10 -3 15 -9 12 -12z m-1372 -287 c-3 -8 -10 -15 -15 -15 -7
0 -6 5 1 13 6 8 7 18 3 22 -4 5 -2 5 5 1 7 -4 10 -13 6 -21z m2104 -157 c2
-17 0 -19 -7 -8 -5 8 -6 18 -4 22 8 12 10 10 11 -14z m-2530 -34 c-9 -9 -28 6
-21 18 4 6 10 6 17 -1 6 -6 8 -13 4 -17z m88 7 c3 -5 2 -12 -3 -15 -5 -3 -9 1
-9 9 0 17 3 19 12 6z m156 -14 c-13 -13 -26 -3 -16 12 3 6 11 8 17 5 6 -4 6
-10 -1 -17z m320 0 c-13 -13 -26 -3 -16 12 3 6 11 8 17 5 6 -4 6 -10 -1 -17z
m1164 14 c3 -5 2 -12 -3 -15 -5 -3 -9 1 -9 9 0 17 3 19 12 6z m-1594 -18 c12
-16 12 -17 -2 -6 -9 7 -19 10 -22 6 -4 -3 -7 -1 -7 5 0 17 16 15 31 -5z m640
0 c12 -16 12 -17 -2 -6 -9 7 -19 10 -22 6 -4 -3 -7 -1 -7 5 0 17 16 15 31 -5z
m395 5 c4 -7 4 -10 -1 -6 -4 4 -14 3 -22 -4 -11 -8 -12 -7 -7 6 7 19 20 21 30
4z m120 0 c4 -7 4 -10 -1 -6 -4 4 -14 3 -22 -4 -11 -8 -12 -7 -7 6 7 19 20 21
30 4z m365 -5 c12 -16 12 -17 -2 -6 -9 7 -19 10 -22 6 -4 -3 -7 -1 -7 5 0 17
16 15 31 -5z m475 5 c4 -7 4 -10 -1 -6 -4 4 -14 3 -22 -4 -11 -8 -12 -7 -7 6
7 19 20 21 30 4z m120 0 c4 -7 4 -10 -1 -6 -4 4 -14 3 -22 -4 -11 -8 -12 -7
-7 6 7 19 20 21 30 4z"/>
<path d="M1674 2629 c-3 -6 -2 -15 3 -20 5 -5 9 -1 9 11 0 23 -2 24 -12 9z"/>
<path d="M2220 2296 c0 -2 7 -7 16 -10 8 -3 12 -2 9 4 -6 10 -25 14 -25 6z"/>
<path d="M1011 2247 c-8 -10 -7 -14 2 -14 8 0 14 6 14 14 0 7 -1 13 -2 13 -2
0 -8 -6 -14 -13z"/>
<path d="M1317 2697 c-3 -8 1 -14 8 -14 7 0 11 6 8 14 -3 7 -6 13 -8 13 -2 0
-5 -6 -8 -13z"/>
<path d="M2765 2660 c-3 -5 -3 -10 2 -10 4 0 1 -5 -7 -11 -12 -8 -10 -9 8 -4
12 4 22 2 22 -4 0 -5 -14 -8 -31 -6 -25 4 -30 1 -25 -12 5 -13 4 -14 -9 -3
-12 10 -15 9 -16 -6 0 -12 -3 -14 -6 -6 -4 10 -8 10 -19 1 -7 -6 -21 -8 -30
-5 -14 5 -15 4 -5 -8 10 -12 8 -16 -11 -22 -13 -4 -26 -7 -30 -6 -5 1 -7 -1
-5 -5 1 -5 -2 -10 -8 -12 -5 -2 -23 -12 -38 -23 -16 -11 -31 -18 -34 -14 -3 3
6 11 21 17 14 7 26 16 26 21 0 5 -14 -1 -31 -13 -21 -15 -29 -27 -26 -41 5
-16 3 -17 -11 -6 -13 11 -14 11 -7 -1 6 -11 4 -13 -10 -7 -16 6 -16 4 -4 -10
12 -15 11 -16 -11 -10 -14 4 -20 4 -15 -1 6 -4 11 -17 10 -27 0 -11 7 -21 15
-23 13 -4 13 -3 0 7 -13 10 -13 11 0 7 9 -2 14 -14 12 -27 l-2 -22 18 22 19
23 21 -21 c17 -17 22 -19 22 -6 0 9 5 12 12 8 8 -5 9 -2 4 11 -5 15 -4 16 9 5
12 -10 15 -10 15 0 0 10 3 10 15 0 12 -10 14 -8 10 7 -2 11 1 26 7 34 8 11 9
10 4 -3 -7 -24 6 -23 27 2 9 11 24 20 32 20 10 0 13 5 9 13 -4 6 -4 9 1 5 4
-4 15 -2 23 5 11 8 14 9 9 0 -5 -8 -1 -11 12 -10 16 1 18 5 9 20 -7 13 -7 17
0 13 6 -3 13 0 15 6 4 10 6 10 6 1 1 -7 5 -13 11 -13 5 0 7 6 4 13 -3 8 3 20
13 28 16 13 17 12 5 -3 -10 -12 -10 -18 -1 -24 7 -4 9 -3 6 3 -4 6 0 16 8 23
13 11 13 14 -2 27 -15 12 -15 14 -2 10 9 -3 16 1 16 9 0 7 -4 11 -8 8 -4 -2
-10 0 -14 6 -4 6 -11 7 -17 4 -7 -4 -8 -2 -4 5 4 6 11 9 16 6 4 -3 14 3 21 12
12 15 12 16 -1 8 -24 -15 -42 -15 -37 0 4 9 -1 11 -15 7 -14 -3 -19 -1 -14 6
4 7 5 12 2 12 -3 0 -8 -4 -11 -10z"/>
<path d="M457 2643 c-4 -3 -1 -13 6 -21 10 -13 9 -15 -5 -9 -10 3 -20 1 -24
-5 -4 -6 -3 -8 4 -4 6 3 13 2 17 -4 3 -5 -2 -10 -12 -10 -15 0 -16 -2 -3 -10
13 -8 12 -10 -2 -10 -10 0 -18 -4 -18 -10 0 -5 6 -7 13 -4 7 2 21 -3 32 -12
11 -8 15 -13 8 -10 -6 4 -14 2 -17 -3 -4 -6 7 -8 25 -6 18 3 29 2 25 -2 -3 -3
0 -13 7 -22 10 -14 10 -14 -5 -3 -12 10 -18 10 -24 1 -4 -7 -3 -9 4 -5 6 3 13
2 16 -3 3 -5 15 -7 26 -4 14 4 20 0 20 -11 0 -9 5 -16 10 -16 6 0 10 5 10 12
0 6 6 4 13 -7 9 -12 19 -15 28 -10 12 8 12 6 0 -8 -12 -15 -12 -17 4 -10 14 5
17 3 13 -8 -4 -10 5 -15 35 -16 22 -2 43 -7 46 -11 10 -14 40 -22 46 -12 3 5
12 7 20 3 19 -7 48 16 41 33 -3 7 -1 15 5 18 5 2 4 3 -3 2 -13 -2 -53 33 -45
40 2 2 10 -2 17 -11 7 -8 17 -15 22 -15 6 0 0 8 -13 19 -13 10 -29 16 -36 14
-7 -3 -13 -1 -13 5 0 9 -65 46 -83 47 -4 0 -11 6 -16 13 -4 7 -14 12 -21 10
-8 -2 -15 3 -16 10 -1 6 -3 15 -4 20 -1 4 -2 10 -2 13 1 3 -5 6 -13 6 -8 0
-12 -4 -10 -8 9 -14 -24 -18 -35 -4 -7 8 -16 13 -20 10 -5 -3 -6 5 -4 17 2 13
2 17 -2 11 -3 -7 -15 -13 -25 -13 -14 0 -18 -4 -13 -12 5 -9 3 -9 -9 1 -9 7
-14 17 -11 22 6 10 0 12 -9 2z m353 -222 c0 -6 -4 -12 -8 -15 -5 -3 -9 1 -9 9
0 8 4 15 9 15 4 0 8 -4 8 -9z"/>
<path d="M540 2633 c0 -6 8 -17 18 -24 16 -13 16 -13 2 6 -8 11 -16 22 -17 24
-2 2 -3 0 -3 -6z"/>
<path d="M2100 2616 c0 -3 9 -10 20 -16 11 -6 20 -8 20 -6 0 3 -9 10 -20 16
-11 6 -20 8 -20 6z"/>
<path d="M627 2586 c-4 -10 -1 -13 8 -9 8 3 12 9 9 14 -7 12 -11 11 -17 -5z"/>
<path d="M2243 2492 c-9 -5 -6 -12 10 -21 20 -13 21 -13 9 1 -10 13 -10 17 0
21 7 3 9 6 3 6 -5 0 -15 -3 -22 -7z"/>
<path d="M2516 2393 c-12 -12 -6 -22 9 -17 11 5 13 2 8 -12 -4 -12 -3 -15 5
-10 7 4 12 13 12 21 0 14 -24 27 -34 18z"/>
<path d="M756 2382 c-4 -7 -12 -10 -17 -7 -5 4 -9 2 -9 -3 0 -6 7 -13 16 -16
8 -3 12 -2 9 4 -3 6 -1 10 4 10 6 0 11 -4 11 -10 0 -5 4 -10 8 -10 5 0 9 7 9
15 0 8 -4 12 -8 9 -4 -2 -9 1 -11 8 -3 9 -6 9 -12 0z"/>
<path d="M435 1859 c-4 -6 -5 -12 -2 -15 2 -3 7 2 10 11 7 17 1 20 -8 4z"/>
<path d="M676 1853 c-6 -14 -5 -15 5 -6 7 7 10 15 7 18 -3 3 -9 -2 -12 -12z"/>
<path d="M996 1853 c-6 -14 -5 -15 5 -6 7 7 10 15 7 18 -3 3 -9 -2 -12 -12z"/>
<path d="M1356 1855 c-18 -14 -18 -14 1 -12 11 0 20 7 20 14 0 7 -1 13 -1 13
-1 0 -9 -7 -20 -15z"/>
<path d="M1836 1855 c-18 -14 -18 -14 1 -12 11 0 20 7 20 14 0 7 -1 13 -1 13
-1 0 -9 -7 -20 -15z"/>
<path d="M2316 1855 c-18 -14 -18 -14 1 -12 11 0 20 7 20 14 0 7 -1 13 -1 13
-1 0 -9 -7 -20 -15z"/>
<path d="M2430 1860 c0 -5 5 -10 10 -10 6 0 10 5 10 10 0 6 -4 10 -10 10 -5 0
-10 -4 -10 -10z"/>
<path d="M2795 1853 c-14 -11 -15 -14 -4 -10 9 3 23 0 30 -6 11 -10 11 -9 1 4
-6 9 -9 19 -5 22 12 13 -2 6 -22 -10z"/>
<path d="M455 1850 c-3 -5 -1 -10 4 -10 6 0 11 5 11 10 0 6 -2 10 -4 10 -3 0
-8 -4 -11 -10z"/>
<path d="M490 1521 c0 -6 -7 -11 -15 -11 -8 0 -15 -4 -15 -8 0 -5 7 -9 15 -9
8 0 15 4 15 9 0 4 5 8 11 8 8 0 9 -4 0 -13 -6 -8 -7 -18 -3 -23 4 -4 0 -3 -9
4 -12 9 -18 9 -28 -1 -7 -6 -12 -7 -11 -2 4 21 -1 33 -16 39 -10 4 -13 2 -8
-6 5 -8 2 -9 -9 -5 -9 3 -19 2 -21 -2 -9 -14 6 -21 25 -10 15 8 17 6 13 -6 -4
-9 -9 -14 -12 -11 -2 3 -13 1 -23 -4 -12 -7 -20 -6 -25 2 -5 7 -3 8 6 3 9 -5
11 -4 6 4 -6 9 -11 9 -22 0 -16 -14 -18 -77 -3 -99 9 -12 10 -11 5 5 -6 20 -6
20 9 1 13 -17 15 -18 15 -3 0 9 4 17 9 17 10 0 9 -18 -3 -40 -4 -8 2 -4 13 9
13 14 21 18 21 10 0 -11 2 -11 10 1 5 8 10 10 10 4 0 -13 45 -35 54 -27 3 4 6
11 6 17 0 7 -4 6 -8 -1 -7 -10 -12 -10 -26 0 -15 11 -11 13 28 13 24 0 42 -4
40 -8 -3 -4 0 -8 5 -8 6 0 11 6 11 13 0 9 3 8 9 -2 7 -11 10 -11 15 0 3 8 5 5
3 -6 -3 -16 1 -21 18 -21 12 0 22 6 22 13 0 9 -4 10 -14 2 -10 -9 -13 -8 -13
2 0 11 16 14 64 14 35 0 62 -3 60 -7 -3 -5 0 -8 5 -8 6 0 11 4 11 8 0 5 7 9
15 9 8 0 15 -4 15 -9 0 -4 -5 -8 -11 -8 -5 0 -7 -5 -4 -11 5 -6 11 -4 19 7 10
13 15 14 21 4 6 -9 4 -11 -6 -5 -8 4 0 -4 16 -18 17 -14 27 -28 23 -32 -9 -10
-30 4 -23 16 4 5 1 9 -4 9 -15 0 -14 -13 1 -28 10 -10 10 -15 0 -21 -11 -7
-10 -10 3 -14 9 -4 13 -3 10 2 -3 5 -1 12 5 16 5 3 10 -2 10 -12 0 -11 5 -24
12 -31 9 -9 8 -12 -6 -12 -10 0 -14 4 -10 12 4 7 3 8 -5 4 -14 -9 -5 -26 14
-26 7 0 16 -7 19 -16 10 -25 7 -27 -11 -13 -16 12 -17 12 -6 -2 7 -9 9 -20 5
-24 -4 -5 -1 -5 5 -1 9 5 12 -2 9 -24 -3 -23 0 -30 10 -26 17 7 28 -10 13 -20
-8 -5 -9 -3 -4 6 6 9 4 11 -5 5 -10 -6 -9 -11 5 -21 10 -7 22 -11 28 -7 6 3 7
1 3 -5 -3 -6 -1 -14 5 -18 8 -5 8 -9 -1 -14 -9 -6 -7 -11 9 -19 13 -7 19 -17
14 -24 -14 -23 -11 -35 8 -32 10 2 22 -1 25 -7 4 -7 2 -8 -4 -4 -7 4 -12 2
-12 -3 0 -10 14 -15 34 -12 5 1 6 -6 2 -15 -4 -10 1 -22 11 -31 10 -8 11 -11
3 -7 -13 7 -13 5 -1 -9 15 -18 26 -23 16 -7 -9 15 4 12 21 -4 8 -8 14 -22 14
-30 0 -9 5 -16 11 -16 16 0 39 -26 31 -36 -4 -5 0 -3 9 4 19 14 33 4 19 -13
-7 -9 -5 -17 7 -26 11 -9 14 -10 9 -1 -4 6 -2 12 3 12 6 0 11 -4 11 -10 0 -5
5 -10 11 -10 5 0 7 6 3 13 -5 8 -3 8 9 -2 9 -7 14 -17 11 -22 -3 -5 7 -9 23
-10 l28 -1 -25 -8 c-24 -8 -24 -8 -2 -9 12 -1 22 -5 22 -11 0 -5 7 -6 17 -3
12 5 14 3 8 -8 -7 -11 -5 -11 10 1 10 8 16 10 12 3 -4 -7 1 -14 13 -18 11 -4
17 -11 14 -17 -4 -7 -2 -8 5 -4 6 4 14 1 17 -7 3 -8 13 -14 22 -12 9 1 22 -2
29 -7 6 -5 14 -5 17 0 3 5 19 7 35 4 17 -2 28 -8 25 -13 -3 -5 0 -9 5 -9 6 0
11 6 11 13 1 6 10 1 20 -12 22 -25 26 -21 10 10 -11 19 -10 19 22 -1 24 -15
34 -16 41 -7 6 8 7 4 4 -10 -4 -19 -2 -20 13 -11 14 9 22 9 35 -2 20 -16 48
-23 39 -9 -3 5 -1 9 5 9 5 0 17 3 25 6 13 5 15 2 9 -12 -5 -14 -1 -13 14 5 13
17 22 21 27 13 4 -7 2 -12 -3 -12 -6 0 -11 -5 -11 -11 0 -8 4 -8 14 1 8 6 12
19 9 28 -3 9 -2 14 2 9 5 -4 17 1 27 10 13 12 18 13 16 4 -2 -7 5 -15 15 -16
9 -2 15 0 12 5 -8 13 17 18 43 9 20 -8 26 -5 23 13 0 4 6 5 14 2 8 -4 12 -11
8 -17 -3 -6 -1 -7 6 -3 6 4 9 12 6 17 -4 5 1 9 10 9 10 0 14 -5 9 -12 -5 -10
-3 -10 7 0 12 11 12 14 -1 23 -13 9 -13 10 0 6 18 -5 52 11 46 22 -3 4 1 8 9
8 10 0 11 -5 4 -18 -5 -10 -9 -21 -9 -26 1 -4 9 8 19 27 20 37 28 40 42 18 6
-9 9 -6 9 12 0 20 2 22 10 10 8 -13 10 -12 10 3 0 9 5 17 11 17 5 0 7 6 4 13
-4 6 1 3 11 -8 13 -16 16 -17 11 -3 -7 20 9 35 16 16 4 -10 6 -10 6 0 1 7 5
10 11 7 6 -4 7 1 3 11 -5 13 -3 15 7 9 10 -6 12 -4 7 8 -3 9 -3 16 1 16 26 -4
44 3 39 15 -4 11 1 13 21 10 19 -3 23 -2 13 5 -12 7 -12 13 -3 24 7 7 9 17 6
20 -4 4 3 5 14 2 15 -3 20 1 17 14 -2 13 3 17 18 16 27 -3 39 3 31 16 -4 6
-11 6 -20 -2 -12 -9 -13 -9 -9 3 3 8 16 19 28 24 12 6 16 9 10 7 -7 -1 -13 2
-13 7 0 6 5 10 10 10 6 0 9 3 9 8 -3 20 3 31 21 37 11 4 17 11 14 17 -5 7 -1
9 8 5 17 -6 19 8 5 30 -5 7 1 21 13 33 12 12 19 27 16 33 -3 9 -5 9 -5 0 -1
-7 -6 -13 -12 -13 -8 0 -8 4 1 14 6 8 19 12 27 9 11 -4 14 -3 9 6 -4 6 -2 18
4 26 6 8 9 19 6 24 -4 5 -2 13 4 16 8 5 8 11 0 20 -8 10 -7 14 7 18 16 4 16 5
-1 6 -20 1 -20 1 0 17 10 8 13 13 6 9 -8 -4 -11 1 -8 17 3 13 5 26 5 31 1 4 4
6 9 6 4 -1 9 0 12 1 3 1 18 3 34 4 16 1 31 8 34 16 2 9 0 11 -5 5 -4 -6 -22
-10 -40 -10 -18 1 -30 -2 -27 -7 3 -4 -3 -5 -12 -1 -11 4 -13 8 -6 11 7 2 9 9
5 15 -5 9 -3 9 8 1 19 -14 45 -11 41 6 -2 10 0 11 10 3 7 -6 21 -9 31 -8 10 2
17 -3 18 -13 0 -14 1 -15 7 -2 4 9 21 15 39 16 18 0 30 -3 27 -8 -3 -4 0 -8 5
-8 6 0 11 4 11 8 0 4 11 8 24 8 14 0 22 -4 20 -8 -3 -4 0 -8 5 -8 6 0 11 6 11
13 0 8 4 7 10 -3 9 -13 10 -13 10 0 1 9 5 6 10 -7 9 -22 40 -23 40 -1 0 6 -6
5 -15 -2 -12 -10 -15 -10 -15 2 0 9 11 14 34 14 19 0 32 -4 30 -8 -3 -5 -11
-5 -17 -1 -7 4 -6 0 2 -10 13 -17 26 -24 18 -9 -9 15 31 35 46 22 6 -6 56 -6
52 0 -3 4 2 13 10 20 23 19 19 50 -6 47 -12 -1 -24 5 -26 13 -4 13 -3 13 6 0
5 -8 13 -11 18 -6 12 12 -27 30 -67 31 -20 1 -34 6 -33 12 1 6 -4 14 -13 17
-10 4 -13 2 -8 -6 7 -11 4 -10 -43 9 -7 3 -13 0 -13 -6 0 -6 3 -10 8 -9 8 3
12 -6 12 -24 0 -8 -5 -6 -10 4 -10 17 -50 14 -50 -4 0 -5 -5 -6 -11 -2 -8 4
-2 12 15 21 33 17 34 26 2 13 -13 -5 -27 -6 -30 -3 -5 6 -10 -12 -7 -29 0 -4
-7 -4 -16 -1 -11 4 -13 8 -5 11 15 5 16 32 1 32 -5 0 -8 -4 -5 -9 10 -15 -18
-19 -32 -4 -9 9 -19 10 -31 3 -10 -5 -21 -7 -24 -3 -10 9 -38 -18 -31 -29 4
-6 -3 -5 -15 1 -12 7 -25 9 -30 6 -17 -10 -60 16 -54 34 4 13 3 14 -5 1 -8
-10 -7 -19 1 -29 9 -11 9 -13 0 -8 -6 4 -13 4 -16 0 -2 -5 -2 -2 -1 5 2 6 -1
12 -7 12 -6 0 -7 5 -4 10 3 6 1 10 -5 10 -7 0 -10 -7 -6 -15 3 -8 2 -15 -2
-16 -4 0 -15 -2 -25 -4 -9 -2 -15 1 -11 6 3 5 9 7 14 4 11 -7 7 22 -5 32 -4 4
-5 3 -1 -4 4 -7 -2 -17 -14 -23 -11 -6 -18 -15 -15 -20 4 -6 -2 -7 -11 -3 -11
4 -13 8 -6 11 7 2 12 10 12 18 0 9 5 12 12 8 7 -5 8 -3 3 5 -5 9 -16 3 -38
-21 -17 -18 -28 -25 -24 -15 7 19 7 19 -45 22 -34 1 -43 -4 -39 -27 0 -4 -7
-4 -16 -1 -11 4 -13 8 -5 11 15 5 16 32 1 32 -5 0 -8 -4 -5 -9 10 -15 -18 -19
-32 -4 -10 9 -19 10 -33 3 -18 -10 -23 -6 -20 13 0 4 -4 7 -9 7 -10 0 -14 -14
-11 -37 1 -7 -3 -13 -9 -13 -6 0 -8 5 -5 10 3 6 2 10 -4 10 -5 0 -15 -8 -20
-17 -8 -14 -9 -11 -6 15 2 17 -1 32 -6 32 -5 0 -9 -4 -9 -10 0 -5 -7 -10 -15
-10 -8 0 -15 -5 -15 -10 0 -7 8 -7 23 1 l22 12 -20 -20 -20 -21 -14 28 c-13
27 -14 27 -33 8 -17 -17 -20 -17 -34 -3 -11 11 -20 12 -33 5 -10 -5 -21 -7
-24 -3 -10 9 -38 -18 -31 -29 4 -6 -3 -5 -15 1 -12 7 -25 10 -29 7 -5 -3 -16
4 -25 15 -13 15 -22 17 -36 10 -13 -7 -24 -6 -41 6 -13 9 -20 11 -16 5 5 -8
-2 -11 -23 -8 -27 3 -29 1 -20 -15 12 -24 8 -24 -21 1 -16 14 -27 17 -40 10
-10 -5 -20 -7 -23 -3 -10 9 -38 -18 -31 -29 4 -6 -3 -5 -15 1 -12 7 -25 10
-29 7 -5 -3 -16 4 -25 15 -13 15 -22 17 -36 10 -13 -7 -24 -6 -41 6 -13 9 -20
11 -16 5 5 -9 -3 -11 -28 -7 -21 2 -36 0 -36 -6 0 -6 4 -8 9 -5 5 3 11 0 14
-7 5 -14 -36 -18 -49 -4 -5 4 -2 6 6 4 8 -2 12 -2 8 0 -4 2 -5 12 -2 21 5 14
4 14 -6 -1 -11 -17 -13 -17 -38 -1 -20 13 -24 14 -15 2 13 -15 8 -28 -9 -28
-5 0 -6 5 -3 10 3 6 1 10 -4 10 -6 0 -11 -4 -11 -9 0 -5 -12 -8 -26 -8 -15 0
-30 -6 -34 -13 -4 -7 -10 -8 -13 -3 -8 13 41 35 56 26 7 -4 6 1 -2 11 -10 11
-17 13 -21 6 -4 -6 -17 -12 -28 -13 -20 -1 -26 -9 -23 -29 0 -4 -7 -4 -16 -1
-11 4 -13 8 -5 11 15 5 16 32 1 32 -5 0 -8 -4 -5 -9 10 -15 -18 -19 -32 -4 -9
9 -19 10 -31 3 -10 -5 -21 -7 -24 -3 -8 8 -38 -17 -32 -26 2 -4 -2 -8 -9 -8
-7 0 -13 6 -13 13 0 7 4 11 8 8 4 -2 10 0 13 5 3 5 -3 11 -14 14 -13 3 -18 1
-13 -6 4 -6 0 -8 -10 -4 -9 3 -19 1 -23 -5 -4 -6 -3 -8 4 -4 6 3 13 2 16 -3 4
-5 -2 -8 -11 -6 -10 2 -22 4 -27 4 -5 1 -3 8 4 16 7 9 10 18 7 21 -3 3 -13 -8
-22 -25 -9 -18 -20 -29 -25 -26 -6 4 -10 8 -10 11 0 3 5 2 10 -1 6 -3 10 -2
10 4 0 5 3 18 6 28 5 17 5 17 -6 1 -11 -19 -36 -26 -25 -8 3 6 1 10 -5 10 -7
0 -10 -7 -7 -15 8 -19 -12 -30 -26 -16 -9 9 -8 11 3 8 8 -2 12 -2 7 0 -4 3 -4
10 0 16 5 8 2 8 -8 0 -12 -10 -20 -9 -40 4 -19 14 -22 14 -12 2 13 -16 8 -29
-9 -29 -5 0 -6 5 -3 10 3 6 1 10 -4 10 -6 0 -11 -4 -11 -9 0 -6 -8 -9 -17 -9
-10 1 -28 -2 -40 -6 -12 -4 -24 -2 -28 3 -3 6 0 9 7 8 7 -2 10 -2 6 0 -4 2 -5
12 -2 21 5 14 4 14 -6 -1 -11 -17 -13 -17 -38 -1 -20 13 -24 14 -15 2 13 -15
8 -28 -9 -28 -5 0 -6 5 -3 10 11 17 -7 11 -21 -7 -11 -14 -13 -15 -9 -2 3 9
-1 22 -10 29 -10 8 -15 9 -15 1z m523 -23 c3 -9 -6 -13 -29 -13 -18 0 -30 3
-28 7 3 5 9 6 13 4 4 -3 13 -1 21 5 19 11 17 11 23 -3z m354 -2 c3 -3 14 -1
23 4 13 7 19 6 23 -3 3 -9 -4 -12 -27 -9 -17 2 -41 3 -53 3 -13 -1 -23 3 -23
8 0 9 48 6 57 -3z m206 2 c3 -9 -6 -13 -29 -13 -18 0 -30 3 -28 7 3 5 9 6 13
4 4 -3 13 -1 21 5 19 11 17 11 23 -3z m114 -2 c3 -3 14 -1 23 4 13 7 19 6 23
-3 3 -9 -4 -12 -27 -9 -17 2 -41 3 -53 3 -13 -1 -23 3 -23 8 0 9 48 6 57 -3z
m206 2 c3 -9 -6 -13 -29 -13 -18 0 -30 3 -28 7 3 5 9 6 13 4 4 -3 13 -1 21 5
19 11 17 11 23 -3z m61 -12 c-3 -9 -10 -13 -15 -10 -5 3 -3 11 4 19 15 16 19
13 11 -9z m157 14 c12 7 18 6 22 -3 6 -16 -40 -15 -53 1 -7 9 -7 9 2 2 7 -5
18 -6 29 0z m502 -2 c3 -9 -6 -13 -29 -13 -18 0 -30 3 -28 7 3 5 9 6 13 4 4
-3 13 -1 21 5 19 11 17 11 23 -3z m-2023 -7 c0 -5 -7 -12 -16 -15 -14 -5 -15
-4 -4 9 14 17 20 19 20 6z m160 0 c0 -5 -7 -12 -16 -15 -14 -5 -15 -4 -4 9 14
17 20 19 20 6z m480 0 c0 -5 -7 -12 -16 -15 -14 -5 -15 -4 -4 9 14 17 20 19
20 6z m1004 -6 c-4 -8 -11 -12 -16 -9 -6 4 -5 10 3 15 19 12 19 11 13 -6z m36
5 c0 -5 -5 -10 -11 -10 -5 0 -7 5 -4 10 3 6 8 10 11 10 2 0 4 -4 4 -10z m545
-10 c3 -6 -1 -7 -9 -4 -18 7 -21 14 -7 14 6 0 13 -4 16 -10z m111 -65 c-4 -27
-43 -46 -43 -20 0 7 8 10 19 7 10 -2 18 -1 17 4 -2 13 0 24 5 24 2 0 3 -7 2
-15z m-1563 -54 c18 -7 26 -7 22 -1 -3 6 -12 10 -20 10 -7 0 -16 8 -20 18 -5
14 -4 15 6 5 15 -15 43 -17 34 -3 -10 16 1 11 16 -7 12 -14 12 -16 0 -8 -10 5
-12 4 -7 -4 10 -16 39 6 29 23 -3 6 2 4 13 -5 38 -32 47 -34 34 -8 -12 23 -12
23 6 7 23 -20 78 -43 69 -28 -3 6 -12 10 -20 10 -7 0 -16 8 -20 18 -5 14 -4
15 6 5 15 -15 43 -17 34 -3 -10 16 1 11 16 -7 12 -14 12 -16 0 -8 -10 5 -12 4
-7 -4 10 -16 39 6 29 23 -3 6 2 4 13 -5 38 -32 47 -34 34 -8 -12 23 -12 23 6
7 23 -20 78 -43 69 -28 -3 6 -12 10 -20 10 -7 0 -16 8 -20 18 -5 14 -4 15 6 5
7 -7 19 -13 27 -13 8 0 10 5 6 13 -5 8 -2 8 9 -2 19 -15 23 -26 5 -15 -7 4 -8
3 -4 -5 10 -16 39 6 29 23 -3 6 2 4 13 -5 38 -32 47 -34 34 -8 -12 23 -12 23
6 7 23 -20 78 -43 69 -28 -3 6 -12 10 -20 10 -7 0 -16 8 -20 18 -5 14 -4 15 6
5 15 -15 43 -17 34 -3 -10 16 1 11 16 -7 12 -14 12 -16 0 -8 -10 5 -12 4 -7
-4 6 -9 11 -9 22 0 7 6 11 16 8 21 -4 7 0 7 12 1 11 -6 31 -9 46 -8 15 1 25
-2 22 -7 -3 -4 0 -8 5 -8 6 0 11 4 11 8 0 5 7 9 15 9 8 0 15 -4 15 -9 0 -4 -5
-8 -11 -8 -5 0 -7 -5 -3 -11 4 -8 11 -5 18 9 13 24 24 24 50 0 11 -10 22 -16
25 -13 2 3 -3 11 -13 18 -15 11 -13 13 19 13 27 0 34 -4 30 -16 -3 -9 1 -8 10
4 11 14 15 16 15 5 0 -12 2 -12 10 1 5 8 10 11 11 5 2 -26 8 -47 15 -53 4 -4
4 1 1 10 -3 10 -2 20 4 24 6 3 8 12 5 20 -4 11 -1 12 12 6 9 -5 30 -8 45 -7
21 1 27 -2 22 -13 -4 -12 -3 -13 10 -2 12 10 16 9 21 -5 5 -13 9 -14 15 -3 6
9 9 9 9 1 0 -6 -5 -15 -11 -19 -8 -4 -7 -9 2 -16 10 -7 8 -8 -6 -4 -16 5 -21
1 -22 -14 -1 -11 3 -22 8 -25 5 -4 7 -11 3 -16 -3 -5 -10 -6 -16 -3 -7 4 -8 2
-4 -5 4 -6 12 -9 17 -6 5 4 9 1 9 -4 0 -6 -5 -11 -11 -11 -6 0 -8 -12 -6 -29
4 -23 2 -28 -9 -24 -8 3 -14 0 -14 -6 0 -6 4 -11 10 -11 5 0 7 -7 4 -15 -4 -8
-10 -15 -16 -15 -5 0 -6 6 -2 13 4 6 -2 4 -13 -6 -18 -15 -29 -52 -13 -42 4 2
7 -2 7 -9 0 -8 -8 -12 -21 -9 -17 4 -18 3 -6 -6 10 -8 12 -13 4 -18 -6 -5 -10
-18 -9 -30 1 -14 -3 -19 -12 -16 -7 3 -13 10 -13 17 0 6 -4 5 -9 -4 -6 -8 -7
-18 -4 -24 3 -5 -2 -15 -12 -23 -14 -9 -15 -13 -4 -13 12 0 12 -2 -1 -10 -8
-5 -24 -7 -35 -4 l-20 6 20 -16 c11 -9 16 -16 10 -15 -26 3 -46 -2 -40 -11 4
-6 11 -8 16 -5 15 10 10 -2 -8 -16 -14 -12 -16 -12 -9 1 4 9 1 8 -7 -2 -15
-19 -32 -25 -22 -8 12 19 -2 10 -26 -17 l-24 -28 25 20 c15 12 20 14 12 4 -6
-9 -8 -19 -4 -23 4 -4 3 -7 -3 -6 -22 5 -36 -1 -29 -11 5 -8 1 -8 -14 0 -14 7
-23 8 -27 1 -4 -6 -11 -7 -17 -4 -7 4 -8 2 -4 -5 6 -9 11 -9 22 0 23 19 16 4
-8 -17 -12 -10 -18 -13 -13 -5 5 9 3 12 -6 9 -8 -3 -14 -10 -14 -16 0 -6 -7
-17 -15 -24 -12 -11 -12 -11 -1 5 8 10 9 17 3 17 -6 0 -14 -4 -17 -10 -3 -5
-20 -10 -36 -10 -17 0 -28 -4 -25 -9 3 -4 -9 -8 -27 -7 -23 1 -32 -3 -31 -15
1 -10 -6 -15 -20 -13 -12 1 -27 3 -34 3 -8 1 -10 6 -6 14 5 9 4 9 -6 0 -9 -9
-17 -9 -26 -2 -8 7 -14 6 -20 -2 -4 -7 -3 -9 4 -5 6 3 13 2 17 -4 3 -5 1 -10
-5 -10 -6 0 -8 -5 -4 -12 6 -10 5 -10 -8 -1 -8 7 -18 10 -21 6 -4 -3 -7 -1 -7
6 0 7 -5 9 -10 6 -6 -4 -8 -11 -5 -16 3 -5 -1 -6 -10 -3 -13 5 -13 9 -3 23 11
14 11 14 -3 4 -9 -7 -20 -9 -24 -5 -5 4 -6 0 -3 -8 4 -11 -1 -15 -17 -15 -19
0 -21 3 -12 14 10 11 8 13 -12 6 -13 -4 -21 -3 -18 2 3 4 -1 16 -8 26 -13 18
-13 18 -19 -1 -4 -12 -14 -19 -24 -17 -9 1 -21 -3 -25 -9 -6 -7 -7 -5 -4 5 9
27 -14 41 -35 23 -16 -15 -17 -15 -13 4 2 15 0 19 -11 15 -7 -3 -11 -9 -8 -14
3 -5 1 -9 -3 -9 -5 0 -14 9 -21 20 -7 11 -17 20 -24 20 -7 0 -3 -7 8 -16 18
-15 18 -15 -2 -5 -12 6 -25 7 -29 3 -5 -4 -5 -1 -1 6 5 8 0 12 -13 12 -11 0
-22 9 -26 19 -4 13 -13 18 -25 16 -14 -3 -17 1 -13 13 6 14 4 15 -9 4 -12 -10
-17 -10 -27 1 -6 8 -8 16 -5 20 5 4 -30 29 -46 31 -3 1 -4 7 -4 14 2 10 -1 10
-12 1 -8 -7 -17 -9 -21 -5 -3 3 -1 6 4 6 6 0 10 8 8 18 -1 9 -9 16 -18 14 -20
-3 -31 14 -16 24 8 5 9 3 4 -6 -5 -9 -4 -11 4 -6 9 6 9 11 0 22 -14 17 -23 19
-13 2 4 -7 3 -8 -4 -4 -7 4 -12 14 -12 22 0 8 -5 14 -11 14 -5 0 -7 6 -3 13 6
9 4 9 -8 -1 -13 -10 -17 -10 -22 3 -3 9 -2 13 4 10 6 -3 10 -1 10 5 0 6 -7 13
-15 16 -21 9 -19 27 3 20 17 -6 16 -4 -38 37 -20 16 -48 53 -34 44 7 -4 14 0
18 8 3 8 0 17 -6 21 -7 5 -8 2 -3 -6 5 -9 4 -11 -4 -6 -6 4 -8 13 -4 19 15 25
10 45 -11 41 -19 -3 -20 -2 -3 10 23 18 22 29 -2 16 -14 -7 -22 -7 -27 2 -4 7
-3 8 4 4 7 -4 12 -2 12 3 0 6 -4 11 -10 11 -14 0 -12 34 3 49 6 7 7 11 2 9 -6
-2 -10 2 -10 7 0 6 2 9 5 8 16 -5 34 -9 27 -6 -4 3 -4 10 -1 15 4 6 2 8 -4 4
-6 -3 -14 -1 -18 5 -4 8 -3 9 4 5 7 -4 12 -3 12 1 0 5 15 9 34 9 19 0 32 -4
30 -8 -3 -4 0 -8 5 -8 6 0 11 4 11 8 0 5 7 9 15 9 8 0 15 -4 15 -9 0 -4 -5 -8
-11 -8 -5 0 -7 -5 -3 -11 4 -8 11 -3 20 12 13 26 18 25 48 -3 11 -10 22 -16
25 -13 2 3 -3 11 -13 18 -15 11 -13 13 19 13 27 0 34 -4 30 -16 -3 -9 1 -8 10
4 11 14 15 16 15 5 0 -12 2 -12 10 1 9 13 10 13 11 0 1 -8 1 -19 0 -25 -1 -5
7 0 17 11 17 20 20 20 46 7 27 -14 27 -14 15 9 -11 22 -11 22 7 6 10 -9 32
-21 47 -27z m977 -61 c0 -5 -4 -10 -10 -10 -5 0 -10 5 -10 10 0 6 5 10 10 10
6 0 10 -4 10 -10z m-50 -180 c0 -5 -7 -7 -15 -4 -8 4 -12 10 -9 15 6 11 24 2
24 -11z m-1271 -24 c9 -11 9 -16 0 -22 -7 -4 -9 -3 -5 4 3 6 -2 15 -11 21 -10
6 -13 11 -7 11 6 0 17 -6 23 -14z m525 -355 c3 -5 -1 -14 -8 -20 -12 -10 -13
-8 -9 8 6 23 9 25 17 12z m201 -21 c3 -5 1 -10 -4 -10 -6 0 -11 5 -11 10 0 6
2 10 4 10 3 0 8 -4 11 -10z m-383 -64 c7 5 8 2 4 -5 -9 -14 -47 7 -54 30 -3 8
5 4 17 -9 12 -12 27 -19 33 -16z m288 -55 c0 -6 -4 -13 -10 -16 -5 -3 -10 1
-10 9 0 9 5 16 10 16 6 0 10 -4 10 -9z"/>
<path d="M986 1368 c3 -5 10 -6 15 -3 13 9 11 12 -6 12 -8 0 -12 -4 -9 -9z"/>
<path d="M1913 1366 c0 -17 30 -14 33 3 2 7 0 7 -3 1 -3 -7 -9 -8 -17 -1 -9 8
-13 7 -13 -3z"/>
<path d="M2253 1363 c0 -9 4 -10 14 -2 7 6 13 12 13 14 0 1 -6 2 -13 2 -8 0
-14 -6 -14 -14z"/>
<path d="M2301 1348 c-13 -20 -12 -22 1 -11 8 7 18 10 22 6 4 -4 4 0 0 10 -8
21 -6 21 -23 -5z"/>
<path d="M947 1307 c-3 -8 1 -14 8 -14 7 0 11 6 8 14 -3 7 -6 13 -8 13 -2 0
-5 -6 -8 -13z"/>
<path d="M1225 861 c-3 -5 -2 -12 3 -15 5 -3 9 1 9 9 0 17 -3 19 -12 6z"/>
<path d="M1300 821 c0 -10 19 -25 25 -20 1 2 -3 10 -11 17 -8 7 -14 8 -14 3z"/>
<path d="M1497 763 c-4 -3 -7 -11 -7 -17 0 -6 5 -5 12 2 6 6 9 14 7 17 -3 3
-9 2 -12 -2z"/>
<path d="M1771 756 c-9 -11 -9 -16 0 -22 7 -4 9 -3 5 4 -3 5 0 12 6 15 7 2 10
7 7 11 -3 4 -12 0 -18 -8z"/>
<path d="M650 1521 c0 -7 -4 -9 -10 -6 -5 3 -10 1 -10 -4 0 -6 4 -11 9 -11 13
0 25 20 17 27 -3 4 -6 1 -6 -6z"/>
<path d="M675 1519 c-4 -6 -5 -12 -2 -15 2 -3 7 2 10 11 7 17 1 20 -8 4z"/>
<path d="M1475 1519 c-4 -6 -13 -8 -19 -6 -7 3 -13 0 -13 -7 0 -13 41 -16 53
-3 4 4 2 7 -5 7 -7 0 -9 5 -6 10 3 6 4 10 1 10 -3 0 -8 -5 -11 -11z"/>
<path d="M1795 1519 c-4 -6 -13 -8 -19 -6 -7 3 -13 0 -13 -7 0 -13 41 -16 53
-3 4 4 2 7 -5 7 -7 0 -9 5 -6 10 3 6 4 10 1 10 -3 0 -8 -5 -11 -11z"/>
<path d="M2279 1518 c14 -19 32 -15 30 5 0 8 -2 8 -6 -1 -4 -10 -8 -10 -21 0
-15 12 -16 11 -3 -4z"/>
<path d="M2457 1523 c-4 -3 -7 -11 -7 -17 0 -6 5 -5 12 2 6 6 9 14 7 17 -3 3
-9 2 -12 -2z"/>
<path d="M2507 1504 c6 -16 19 -18 27 -5 3 5 -3 11 -13 14 -14 3 -18 1 -14 -9z"/>
<path d="M2837 1507 c-3 -8 1 -14 8 -14 7 0 11 6 8 14 -3 7 -6 13 -8 13 -2 0
-5 -6 -8 -13z"/>
<path d="M2475 1500 c-3 -5 -1 -10 4 -10 6 0 11 5 11 10 0 6 -2 10 -4 10 -3 0
-8 -4 -11 -10z"/>
<path d="M640 1376 c0 -2 7 -9 15 -16 9 -7 15 -8 15 -2 0 5 -7 12 -15 16 -8 3
-15 4 -15 2z"/>
<path d="M2595 1371 c-3 -5 -2 -12 3 -15 5 -3 9 1 9 9 0 17 -3 19 -12 6z"/>
<path d="M2675 1371 c-3 -5 -2 -12 3 -15 5 -3 9 1 9 9 0 17 -3 19 -12 6z"/>
<path d="M2855 1360 c3 -5 8 -10 11 -10 2 0 4 5 4 10 0 6 -5 10 -11 10 -5 0
-7 -4 -4 -10z"/>
<path d="M2466 1318 c3 -5 10 -6 15 -3 13 9 11 12 -6 12 -8 0 -12 -4 -9 -9z"/>
<path d="M908 1013 c7 -3 16 -2 19 1 4 3 -2 6 -13 5 -11 0 -14 -3 -6 -6z"/>
<path d="M2360 1010 c-8 -5 -12 -12 -9 -15 4 -3 12 1 19 10 14 17 11 19 -10 5z"/>
<path d="M740 983 c0 -5 -12 -17 -27 -27 -14 -11 -23 -14 -19 -8 4 7 1 12 -9
12 -9 0 -13 -4 -10 -10 3 -5 1 -10 -5 -10 -6 0 -8 -4 -5 -10 3 -5 -1 -10 -10
-10 -9 0 -14 -4 -10 -9 3 -5 1 -12 -4 -15 -5 -4 -13 -1 -17 5 -5 8 -3 9 6 4 9
-5 11 -4 6 4 -6 9 -11 9 -23 -1 -9 -7 -17 -11 -17 -9 -2 8 -46 -11 -46 -20 0
-5 11 -3 23 6 20 13 24 13 24 1 0 -8 -6 -12 -13 -9 -6 2 -15 -1 -19 -7 -5 -8
-11 -8 -21 1 -9 7 -14 8 -13 3 5 -26 -2 -36 -21 -31 -13 3 -18 1 -13 -6 4 -6
0 -8 -10 -4 -9 3 -16 3 -16 -1 3 -18 -2 -33 -8 -29 -5 2 -16 -4 -25 -14 -14
-15 -14 -18 -2 -23 9 -3 12 -10 9 -16 -4 -6 -12 -7 -18 -3 -8 5 -8 2 0 -9 7
-8 9 -18 5 -22 -4 -4 -2 -7 3 -6 20 4 36 0 31 -9 -6 -9 51 -7 61 3 3 3 13 0
22 -7 14 -10 14 -10 4 4 -7 9 -9 20 -5 25 4 4 0 3 -10 -4 -11 -9 -18 -10 -23
-2 -4 6 -3 10 2 9 4 -1 10 0 13 1 21 8 40 6 40 -3 1 -7 6 -2 13 11 7 12 16 19
20 16 4 -4 7 -2 7 5 0 7 5 9 10 6 6 -3 10 -1 10 6 0 8 4 8 15 -1 9 -7 18 -10
22 -6 3 3 1 6 -5 6 -15 0 -15 27 0 36 8 5 9 2 5 -10 -4 -10 -3 -15 3 -11 6 3
10 13 10 20 0 9 6 12 17 8 11 -5 14 -3 8 6 -6 11 -3 11 16 0 22 -11 23 -11 10
5 -8 9 -10 16 -5 15 22 -4 45 2 40 10 -3 5 1 14 9 21 8 7 12 17 8 23 -4 6 -1
7 6 3 9 -6 8 -13 -5 -27 -9 -10 -13 -19 -8 -19 5 0 18 12 28 27 11 14 14 23 8
19 -7 -4 -12 -2 -12 3 0 6 4 11 10 11 16 0 0 27 -23 39 -21 11 -21 11 3 6 21
-5 22 -4 7 5 -9 6 -26 8 -37 5 -15 -5 -18 -3 -14 9 3 9 3 16 0 16 -3 0 -6 -3
-6 -7z m-274 -215 c-1 -14 8 -32 23 -45 21 -17 22 -21 8 -19 -10 1 -23 9 -28
17 -5 8 -9 10 -9 6 0 -5 -5 -5 -10 -2 -8 5 -7 12 2 23 10 12 10 16 0 19 -6 3
-10 9 -6 14 10 17 21 9 20 -13z m109 -18 c3 -6 -1 -7 -9 -4 -18 7 -21 14 -7
14 6 0 13 -4 16 -10z"/>
<path d="M2513 966 c-3 -5 -1 -6 5 -2 7 4 12 3 12 -2 0 -5 -9 -12 -20 -15 -11
-3 -18 -1 -14 4 3 5 1 9 -4 9 -6 0 -13 -7 -16 -16 -3 -8 -10 -12 -16 -9 -16
10 -12 -11 5 -25 13 -11 14 -10 9 4 -3 9 -1 16 4 16 6 0 9 -10 7 -22 -5 -23
13 -45 56 -69 24 -13 30 -15 49 -18 5 0 7 -9 3 -18 -5 -15 -3 -16 8 -5 18 17
34 15 20 -2 -10 -11 -7 -17 11 -30 12 -9 27 -16 33 -16 5 1 -2 8 -17 16 -16 8
-28 17 -28 19 0 8 64 -23 68 -33 2 -6 10 -8 19 -5 13 5 14 3 3 -18 -10 -20
-10 -22 1 -11 16 15 39 16 39 1 0 -5 -4 -7 -10 -4 -6 4 -7 -1 -3 -11 4 -11 8
-13 11 -6 2 7 8 12 13 12 6 0 8 -4 5 -8 -2 -4 8 -8 24 -7 21 0 26 3 18 12 -7
9 -3 11 19 7 l28 -4 -25 16 c-14 8 -17 13 -8 10 21 -6 33 9 17 20 -8 5 -9 3
-4 -7 5 -8 4 -10 0 -6 -16 14 -14 39 2 33 14 -6 14 -4 2 11 -8 10 -20 22 -27
26 -7 5 -10 12 -7 17 3 5 1 11 -4 14 -5 4 -13 1 -17 -5 -5 -8 -3 -9 6 -4 9 6
11 4 5 -5 -6 -10 -11 -9 -21 4 -7 10 -17 15 -22 12 -5 -3 -16 2 -23 11 -12 14
-12 16 0 8 10 -6 12 -4 7 4 -5 7 -14 10 -21 7 -8 -3 -19 2 -25 9 -7 8 -16 13
-20 10 -4 -3 -13 2 -20 10 -7 8 -16 13 -20 10 -5 -3 -6 5 -3 17 3 17 2 19 -5
9 -7 -10 -11 -10 -14 -1 -2 7 -16 13 -32 13 -16 0 -25 4 -23 11 6 14 -32 16
-40 2z"/>
<path d="M635 940 c-3 -5 -1 -10 4 -10 6 0 11 5 11 10 0 6 -2 10 -4 10 -3 0
-8 -4 -11 -10z"/>
<path d="M2640 926 c0 -2 7 -9 15 -16 9 -7 15 -8 15 -2 0 5 -7 12 -15 16 -8 3
-15 4 -15 2z"/>
<path d="M2436 907 c3 -10 9 -15 12 -12 3 3 0 11 -7 18 -10 9 -11 8 -5 -6z"/>
<path d="M2690 901 c0 -6 4 -13 10 -16 6 -3 7 1 4 9 -7 18 -14 21 -14 7z"/>
<path d="M2245 860 c-3 -6 1 -7 9 -4 18 7 21 14 7 14 -6 0 -13 -4 -16 -10z"/>
<path d="M2511 837 c2 -1 13 -9 24 -17 19 -14 19 -14 6 3 -7 9 -18 17 -24 17
-6 0 -8 -1 -6 -3z"/>
<path d="M1141 613 c-10 -4 -8 -9 10 -20 14 -8 16 -12 6 -9 -10 3 -25 6 -33 6
-9 0 -12 5 -8 12 4 7 3 8 -5 4 -6 -4 -9 -12 -6 -17 4 -5 1 -9 -5 -9 -6 0 -9
-4 -6 -9 4 -5 -3 -7 -14 -4 -12 3 -20 0 -20 -6 0 -7 5 -9 10 -6 16 10 11 -1
-7 -16 -10 -8 -14 -9 -10 -2 4 6 2 15 -5 19 -7 4 -10 4 -6 -1 4 -4 2 -15 -5
-23 -10 -13 -9 -14 1 -8 10 6 13 2 10 -15 -2 -15 -9 -24 -20 -23 -13 1 -15 -3
-8 -21 7 -19 5 -22 -16 -19 -16 1 -22 -2 -17 -9 11 -18 12 -38 2 -31 -5 3 -6
10 -3 16 4 7 2 8 -4 4 -6 -4 -8 -14 -5 -23 4 -11 3 -14 -5 -9 -8 5 -10 1 -5
-10 5 -14 3 -16 -12 -10 -11 4 -16 4 -13 0 4 -3 1 -13 -7 -21 -17 -16 -20 -37
-5 -28 6 3 10 1 10 -4 0 -10 -14 -15 -32 -12 -5 0 -8 -4 -8 -9 0 -6 6 -10 14
-10 9 0 12 -7 9 -18 -2 -10 5 -26 18 -37 12 -11 19 -15 16 -9 -4 7 0 15 9 18
10 4 13 2 8 -6 -5 -8 -2 -9 12 -3 10 4 29 10 41 12 18 4 22 11 19 29 -3 14 -1
22 5 19 5 -4 9 1 9 10 0 9 4 13 10 10 6 -3 7 1 4 9 -3 9 -2 16 4 16 6 0 12 -5
14 -12 3 -7 7 -5 11 6 4 10 3 15 -3 11 -15 -9 -6 33 10 48 12 10 12 9 2 -5
-11 -13 -10 -18 0 -24 7 -4 10 -4 6 1 -4 4 -3 15 4 22 9 11 9 16 -1 23 -9 5
-10 10 -2 14 6 4 17 4 24 0 7 -5 6 0 -3 11 -9 11 -10 16 -2 11 6 -4 12 -3 12
3 0 6 10 20 23 32 12 12 16 18 8 14 -9 -5 -12 -3 -9 6 3 8 11 13 18 11 11 -2
11 0 1 12 -8 10 -9 16 -1 21 6 3 8 11 4 16 -3 6 -12 5 -22 -3 -14 -12 -14 -10
-3 10 10 18 9 23 -4 28 -8 3 -12 10 -9 15 6 10 5 10 -15 2z m-177 -274 c-3 -5
-10 -7 -15 -3 -5 3 -7 10 -3 15 3 5 10 7 15 3 5 -3 7 -10 3 -15z m-14 -79 c0
-5 -2 -10 -4 -10 -3 0 -8 5 -11 10 -3 6 -1 10 4 10 6 0 11 -4 11 -10z"/>
<path d="M1765 609 c-4 -6 -5 -12 -2 -15 2 -3 7 2 10 11 7 17 1 20 -8 4z"/>
<path d="M2137 603 c-4 -3 -7 -11 -7 -17 0 -6 5 -5 12 2 6 6 9 14 7 17 -3 3
-9 2 -12 -2z"/>
<path d="M2164 601 c5 -7 -17 -22 -34 -22 -3 -1 -11 -6 -19 -12 -11 -9 -13 -9
-8 0 4 6 3 14 -2 17 -11 7 -9 -13 2 -31 5 -7 6 -17 3 -22 -4 -5 0 -12 6 -15 7
-3 2 -4 -12 -1 -14 3 -19 2 -12 -1 6 -3 10 -10 6 -15 -3 -5 -2 -9 3 -8 4 1 15
1 23 0 13 -1 13 -2 0 -11 -8 -5 -10 -10 -4 -10 7 0 15 -7 18 -16 3 -8 2 -12
-3 -9 -5 3 -13 0 -17 -6 -4 -8 -3 -9 4 -5 7 4 12 2 12 -5 0 -9 3 -9 14 0 12
10 13 8 9 -10 -4 -15 -3 -20 5 -15 7 4 12 2 12 -4 0 -6 6 -8 13 -4 6 4 9 4 5
-1 -4 -4 -2 -15 5 -23 8 -10 8 -13 1 -9 -7 4 -15 0 -18 -9 -3 -8 -2 -12 3 -9
5 3 12 1 16 -5 3 -5 1 -10 -4 -10 -6 0 -11 -5 -11 -10 0 -7 7 -7 21 1 15 8 19
8 15 0 -4 -6 -2 -11 3 -11 6 0 11 -5 11 -11 0 -5 -6 -7 -12 -3 -8 4 -10 3 -5
-2 5 -5 14 -9 20 -9 5 0 12 -6 15 -14 3 -9 0 -11 -7 -6 -9 5 -9 2 0 -13 8 -12
19 -18 28 -14 14 5 14 4 1 -14 -14 -17 -13 -18 1 -7 9 7 19 10 23 6 4 -4 4 0
1 9 -5 13 -1 16 19 14 18 -2 27 3 31 15 4 11 11 19 16 19 6 0 8 -4 4 -9 -3 -5
0 -13 7 -17 7 -4 10 -4 6 1 -4 4 -3 14 4 22 6 8 7 13 2 12 -24 -4 -34 4 -45
36 -7 19 -18 35 -24 35 -5 0 -3 5 5 10 10 6 11 10 3 10 -7 0 -13 5 -13 11 0 5
5 7 12 3 7 -4 8 -3 4 5 -6 9 -11 9 -24 -1 -14 -12 -14 -10 -2 12 12 23 12 24
-4 11 -14 -12 -16 -12 -10 4 4 10 3 16 -2 13 -5 -3 -15 1 -23 9 -12 13 -11 14
10 8 23 -7 23 -7 4 8 -11 8 -24 13 -28 10 -5 -3 -5 3 1 13 11 23 5 44 -13 44
-8 0 -17 9 -20 20 -4 11 -11 17 -17 14 -6 -4 -8 2 -3 17 7 24 7 24 -9 4 -17
-20 -17 -20 -11 3 4 13 2 22 -5 22 -6 0 -9 -4 -6 -9z"/>
<path d="M1585 580 c-3 -6 1 -7 9 -4 18 7 21 14 7 14 -6 0 -13 -4 -16 -10z"/>
<path d="M2073 546 c0 -7 6 -13 14 -13 7 0 13 4 13 8 0 4 -6 9 -13 12 -8 3
-14 0 -14 -7z"/>
<path d="M1665 455 l18 -30 -28 25 c-16 14 -25 19 -20 11 6 -11 4 -13 -8 -8
-17 6 -42 -17 -33 -31 3 -6 -1 -15 -9 -22 -8 -7 -12 -17 -9 -22 4 -6 10 -5 16
3 8 11 9 11 5 -1 -2 -9 -13 -14 -28 -12 -23 2 -23 2 4 -13 15 -9 27 -18 27
-21 0 -3 -4 -2 -10 1 -5 3 -10 1 -10 -5 0 -6 -4 -9 -9 -6 -5 4 -7 -4 -3 -16 4
-16 2 -19 -8 -13 -8 5 -11 4 -6 -3 4 -6 14 -8 24 -5 15 6 15 5 3 -10 -7 -9
-17 -15 -20 -12 -4 2 -8 -2 -8 -10 0 -10 4 -12 12 -5 9 8 15 5 19 -7 9 -21 8
-24 -1 -20 -5 1 -7 6 -5 10 1 5 -2 6 -7 3 -5 -3 -7 -15 -4 -26 3 -11 -1 -28
-8 -37 -10 -12 -10 -14 -1 -9 13 8 17 -6 5 -18 -4 -3 -8 -14 -9 -22 -1 -9 0
-13 3 -10 11 11 42 -14 37 -29 -4 -9 0 -15 10 -15 9 0 16 -6 16 -12 0 -9 3 -8
10 2 8 13 11 13 22 1 11 -12 10 -13 -2 -6 -8 5 -11 4 -7 0 4 -5 15 -10 23 -11
9 -1 13 0 10 3 -3 4 -1 12 5 20 6 7 9 22 6 33 -3 11 0 23 5 27 7 3 8 1 4 -5
-5 -8 -1 -10 9 -5 13 4 14 8 4 14 -15 9 -21 39 -8 39 5 0 9 5 9 11 0 6 -7 8
-16 5 -8 -3 -12 -2 -9 4 3 6 12 10 20 10 8 0 16 4 19 9 4 5 -2 7 -12 4 -16 -4
-19 2 -19 31 0 20 4 36 9 36 5 0 6 -4 3 -10 -4 -6 1 -7 11 -3 15 5 15 7 -2 17
-23 14 -31 41 -10 33 9 -4 18 -2 21 4 4 5 3 9 -2 8 -23 -4 -32 2 -26 18 5 12
3 14 -7 8 -9 -5 -11 -4 -6 4 4 6 13 8 19 5 8 -5 8 -3 0 7 -14 14 -18 33 -5 25
4 -2 9 5 9 17 2 17 0 19 -7 7 -8 -12 -10 -11 -11 5 -1 11 0 25 1 30 1 6 -2 7
-6 3 -4 -4 -14 0 -22 10 -8 9 -6 4 3 -13z m-71 -270 c-4 -8 -11 -15 -16 -15
-6 0 -5 6 2 15 7 8 14 15 16 15 2 0 1 -7 -2 -15z m-1 -32 c-7 -2 -13 -9 -13
-14 0 -6 5 -7 12 -3 7 4 8 3 4 -4 -4 -6 -13 -9 -22 -5 -11 4 -12 9 -3 19 6 8
17 14 23 13 7 0 6 -2 -1 -6z"/>
<path d="M1567 416 c-4 -10 -1 -13 8 -9 8 3 12 9 9 14 -7 12 -11 11 -17 -5z"/>
<path d="M2313 225 c0 -8 4 -12 9 -9 5 3 6 10 3 15 -9 13 -12 11 -12 -6z"/>
<path d="M1567 83 c6 -16 10 -16 16 0 3 8 -1 14 -8 14 -7 0 -11 -6 -8 -14z"/>
</g>
</svg>
